<svg xmlns="http://www.w3.org/2000/svg" xml:space="preserve" width="72" height="72" id="drizzle">
  <path fill="#45ABFF" d="M29.422 58.493a1.001 1.001 0 0 1-.937-1.351l.751-2a1.001 1.001 0 0 1 1.873.703l-.751 2a1 1 0 0 1-.936.648zM31.673 52.493a1 1 0 0 1-.937-1.35l.749-2a1 1 0 0 1 1.873.701l-.749 2a1 1 0 0 1-.936.649zM35.226 56.493a1.001 1.001 0 0 1-.937-1.351l.75-2a1.001 1.001 0 0 1 1.873.703l-.75 2a1 1 0 0 1-.936.648z"></path>
  <path fill="#FFAA45" d="M25.269 18.444a.998.998 0 0 1-.924-.617l-1.216-2.937a1 1 0 0 1 1.848-.766l1.216 2.937a1 1 0 0 1-.924 1.383zM16.551 33.617a1 1 0 0 1-.383-1.924l2.937-1.217a1.001 1.001 0 0 1 .766 1.848l-2.937 1.217a.995.995 0 0 1-.383.076zM39.225 24.226a1 1 0 0 1-.383-1.924l2.937-1.217a1 1 0 0 1 .766 1.848l-2.937 1.217a1.021 1.021 0 0 1-.383.076zM33.443 18.444a1 1 0 0 1-.923-1.383l1.217-2.937a1 1 0 1 1 1.848.766l-1.217 2.937a1.003 1.003 0 0 1-.925.617zM19.487 24.226a.993.993 0 0 1-.382-.076l-2.937-1.217a1 1 0 0 1 .766-1.848l2.937 1.217a1 1 0 0 1-.384 1.924z"></path>
  <circle cx="29.356" cy="27.313" r="8.291" fill="#FFAA45"></circle>
  <path fill="#FFDA69" d="M29.353 21.02a6.274 6.274 0 0 1 5.814 3.885 6.25 6.25 0 0 1 0 4.815 6.249 6.249 0 0 1-3.405 3.404 6.256 6.256 0 0 1-2.404.481 6.276 6.276 0 0 1-5.815-3.885 6.298 6.298 0 0 1 5.81-8.7"></path>
  <path fill="#FFAA45" d="m41.035 46.208-2 6h5l-2 6 8-9h-4l2-3z"></path>
  <path fill="#868686" d="M43.842 25.813c-3.586 0-6.83 1.837-8.681 4.801a7.51 7.51 0 0 0-7.735 3.85 5.936 5.936 0 0 0-5.62 5.921c0 2.936 2.18 5.25 5.554 5.893 2.206.421 5.395.577 11.768.577 6.022 0 9.86-.302 12.019-.555 3.172-.372 5.303-2.591 5.303-5.522a5.491 5.491 0 0 0-2.359-4.52l.002-.194c-.001-5.653-4.599-10.251-10.251-10.251z"></path>
  <path fill="#E6E6E6" d="M51.971 37.421a8.32 8.32 0 0 0 .121-1.357 8.248 8.248 0 1 0-15.897-3.088 5.498 5.498 0 0 0-7.479 3.619 3.873 3.873 0 0 0-.981-.139 3.929 3.929 0 0 0-3.929 3.929c0 2.17 1.744 3.512 3.929 3.929 2.185.417 5.518.542 11.393.542s9.655-.292 11.786-.542c2.131-.25 3.536-1.583 3.536-3.536a3.524 3.524 0 0 0-2.479-3.357z"></path>
  <path fill="#FFF" d="M27.735 38.491c.341 0 .666.057.981.138a5.497 5.497 0 0 1 7.479-3.619 8.247 8.247 0 0 1 7.647-5.162c4.203 0 7.664 3.144 8.177 7.207a7.72 7.72 0 0 0 .073-.992 8.248 8.248 0 1 0-15.897-3.088 5.498 5.498 0 0 0-7.479 3.619 3.872 3.872 0 0 0-.981-.138 3.929 3.929 0 0 0-3.929 3.929c0 .36.064.689.154 1.004.456-1.667 1.964-2.898 3.775-2.898z"></path>
</svg>
